<svg xmlns="http://www.w3.org/2000/svg" version="1.1" xmlns:xlink="http://www.w3.org/1999/xlink" xmlns:svgjs="http://svgjs.dev/svgjs" viewBox="0 0 21.245469926669653 8.72562821391978"><g transform="matrix(0.7774621211406116,0,0,0.7774621211406116,3.3348523036466657,3.2086327150205953)"><rect width="23.74306143838544" height="23.74306143838544" x="-2.497591511715786" y="-10.386980719192719" fill="#ffffff"></rect><g transform="matrix(1,0,0,1,0,0)" clip-path="url(#SvgjsClipPath2518)"><g clip-path="url(#a44aaebfd-1943-42be-b29a-22bfb35238990e70fae2-a49a-4a34-8c6b-b30db8db04cb)"><path d=" M 18.74789287944673 1.4845778303024681 C 18.74789287944673 3.2043806647291513 17.350618223558968 4.598568351101997 15.627287423972383 4.598568351101997 C 13.903635900280351 4.598568351101997 12.506521606445311 3.2043806647291513 12.506521606445311 1.4845778303024681 C 12.506521606445311 -0.23522500412421476 13.90363590028035 -1.6294928715234216 15.627287423972383 -1.6294928715234216 C 17.350618223558968 -1.6294928715234216 18.74789287944673 -0.23522500412421476 18.74789287944673 1.4845778303024681" fill="#a4c868" transform="matrix(1,0,0,1,0,0)" fill-rule="nonzero"></path></g><g clip-path="url(#a44aaebfd-1943-42be-b29a-22bfb35238990e70fae2-a49a-4a34-8c6b-b30db8db04cb)"><path d=" M 17.83386926943941 3.686509176240534 C 16.615117668745413 4.902614803064605 14.63929681714663 4.902534622038244 13.420665487992174 3.686509176240534 C 12.201913887298176 2.4703634589032823 12.201913887298176 0.4987120206752931 13.42054521645263 -0.7173535156355969 C 14.369607934979902 0.2296645867194569 16.64574682081549 2.5009926109733547 17.83386926943941 3.686509176240534" fill="#67a97b" transform="matrix(1,0,0,1,0,0)" fill-rule="nonzero"></path></g><g clip-path="url(#SvgjsClipPath25130e70fae2-a49a-4a34-8c6b-b30db8db04cb)"><path d=" M 16.308745967018325 0.8232848153864321 L 14.941539196016105 0.8232848153864321 L 14.941539196016105 0.5004760032552455 L 16.308745967018325 0.5004760032552455 Z M 14.899845062308152 1.3544440245178395 L 14.388450476174842 1.3544440245178395 L 14.388450476174842 1.0315550313602915 L 14.899845062308152 1.0315550313602915 Z M 15.536482411618044 1.3544440245178395 L 15.014463839491842 1.3544440245178395 L 15.014463839491842 1.0315550313602915 L 15.536482411618044 1.0315550313602915 Z M 16.183463113328564 1.3544440245178395 L 15.661765265307805 1.3544440245178395 L 15.661765265307805 1.0315550313602915 L 16.183463113328564 1.0315550313602915 Z M 16.820100462638454 1.3544440245178395 L 16.298242252564975 1.3544440245178395 L 16.298242252564975 1.0315550313602915 L 16.820100462638454 1.0315550313602915 Z M 14.899845062308152 1.833445476001126 L 14.388450476174842 1.833445476001126 L 14.388450476174842 1.4897895970159627 L 14.899845062308152 1.4897895970159627 Z M 15.536482411618044 1.833445476001126 L 15.014463839491842 1.833445476001126 L 15.014463839491842 1.4897895970159627 L 15.536482411618044 1.4897895970159627 Z M 16.183463113328564 1.833445476001126 L 15.661765265307805 1.833445476001126 L 15.661765265307805 1.4897895970159627 L 16.183463113328564 1.4897895970159627 Z M 16.820100462638454 1.833445476001126 L 16.298242252564975 1.833445476001126 L 16.298242252564975 1.4897895970159627 L 16.820100462638454 1.4897895970159627 Z M 14.899845062308152 2.312527108510773 L 14.388450476174842 2.312527108510773 L 14.388450476174842 1.9688712295256108 L 14.899845062308152 1.9688712295256108 Z M 15.536482411618044 2.312527108510773 L 15.014463839491842 2.312527108510773 L 15.014463839491842 1.9688712295256108 L 15.536482411618044 1.9688712295256108 Z M 16.183463113328564 2.312527108510773 L 15.661765265307805 2.312527108510773 L 15.661765265307805 1.9688712295256108 L 16.183463113328564 1.9688712295256108 Z M 16.820100462638454 2.312527108510773 L 16.298242252564975 2.312527108510773 L 16.298242252564975 1.9688712295256108 L 16.820100462638454 1.9688712295256108 Z M 14.899845062308152 2.760257959713095 L 14.388450476174842 2.760257959713095 L 14.388450476174842 2.42698552364174 L 14.899845062308152 2.42698552364174 Z M 15.536482411618044 2.760257959713095 L 15.014463839491842 2.760257959713095 L 15.014463839491842 2.42698552364174 L 15.536482411618044 2.42698552364174 Z M 16.183463113328564 2.760257959713095 L 15.661765265307805 2.760257959713095 L 15.661765265307805 2.42698552364174 L 16.183463113328564 2.42698552364174 Z" fill="#1c3423" transform="matrix(1,0,0,1,0,0)" fill-rule="nonzero"></path></g><g clip-path="url(#b44aaebfd-1943-42be-b29a-22bfb35238990e70fae2-a49a-4a34-8c6b-b30db8db04cb)"><path d=" M 16.66358709918091 -0.23907369338956386 C 16.66358709918091 -0.2102887049258042 16.640134148970184 -0.18683575471508096 16.61110861742734 -0.18683575471508096 L 16.507234097776085 -0.18683575471508096 C 16.47816847572006 -0.18683575471508096 16.454915978075242 -0.2102887049258042 16.454915978075242 -0.23907369338956386 L 16.454915978075242 -0.5302510906211595 C 16.454915978075242 -0.559196441137642 16.47816847572006 -0.5825692103220039 16.507234097776085 -0.5825692103220039 L 16.61110861742734 -0.5825692103220039 C 16.640134148970184 -0.5825692103220039 16.66358709918091 -0.559196441137642 16.66358709918091 -0.5302510906211595 Z" fill="#1c3423" transform="matrix(1,0,0,1,0,0)" fill-rule="nonzero"></path></g><g clip-path="url(#b44aaebfd-1943-42be-b29a-22bfb35238990e70fae2-a49a-4a34-8c6b-b30db8db04cb)"><path d=" M 14.732868074910439 -0.23907369338956386 C 14.732868074910439 -0.2102887049258042 14.709415124699715 -0.18683575471508096 14.680389593156871 -0.18683575471508096 L 14.576515073505616 -0.18683575471508096 C 14.547609813502316 -0.18683575471508096 14.524036591752049 -0.2102887049258042 14.524036591752049 -0.23907369338956386 L 14.524036591752049 -0.5302510906211595 C 14.524036591752049 -0.559196441137642 14.547609813502316 -0.5825692103220039 14.576515073505616 -0.5825692103220039 L 14.680389593156871 -0.5825692103220039 C 14.709415124699715 -0.5825692103220039 14.732868074910439 -0.559196441137642 14.732868074910439 -0.5302510906211595 Z" fill="#1c3423" transform="matrix(1,0,0,1,0,0)" fill-rule="nonzero"></path></g><g clip-path="url(#b44aaebfd-1943-42be-b29a-22bfb35238990e70fae2-a49a-4a34-8c6b-b30db8db04cb)"><path d=" M 17.07194906643976 2.3749881280463407 L 16.246084494916854 2.3749881280463407 L 16.246084494916854 3.5510032416896884 C 16.256548118857022 3.5501212503997124 16.281003331897264 3.5482369962802185 16.30842524291288 3.5445486690675914 C 16.421199856490254 3.529113821493013 16.640615235128354 3.480804753110241 16.843553412849175 3.332991031012913 C 16.93112104523935 3.2696771147161883 17.007858523547178 3.192601168349486 17.07078644155752 3.1047557394750527 C 17.19282196367964 2.9342507869174357 17.282865256283547 2.708180383091335 17.293729785355524 2.3749881280463407 Z M 16.976894459688264 3.0262986051803766 C 16.930509735938166 3.0911650555067878 16.878151525724142 3.1445255285503313 16.823067160613828 3.1847764037837774 C 16.68483507116669 3.2853635013542135 16.538304245491148 3.347503796784334 16.461691274802785 3.3579273302113233 C 16.44308927668693 3.360493123054889 16.423525106254736 3.3621769246084794 16.423525106254736 3.362858463332552 L 16.423525106254736 2.551987743739236 L 17.128115875405953 2.551987743739236 C 17.120458587388434 2.7811050265670714 17.060002093511905 2.910316750548543 16.976894459688264 3.0262986051803766" fill="#1c3423" transform="matrix(1,0,0,1,0,0)" fill-rule="nonzero"></path></g><g clip-path="url(#b44aaebfd-1943-42be-b29a-22bfb35238990e70fae2-a49a-4a34-8c6b-b30db8db04cb)"><path d=" M 16.20435027069572 3.343414564439901 L 14.179779355069176 3.343414564439901 L 14.179779355069176 0.20885761037866235 L 17.070585988991617 0.20885761037866235 L 17.070585988991617 2.343677437252196 L 17.28976082455063 2.343677437252196 L 17.28976082455063 -0.41595303754291546 L 16.72608820922966 -0.41595303754291546 L 16.72608820922966 -0.1979007363529599 C 16.72608820922966 -0.13836632427958562 16.687601316576163 -0.09314422541172918 16.627906542450063 -0.09314422541172918 L 16.490115448647916 -0.09314422541172918 C 16.430460765035 -0.09314422541172918 16.381830972546783 -0.13836632427958562 16.381830972546783 -0.1979007363529599 L 16.381830972546783 -0.41595303754291546 L 14.826760056779694 -0.41595303754291546 L 14.826760056779694 -0.2298127848448157 C 14.826760056779694 -0.1702783727714412 14.771034243458487 -0.12437473517951281 14.711499831385112 -0.12437473517951281 L 14.573548375530242 -0.12437473517951281 C 14.514013963456868 -0.12437473517951281 14.4615354817033 -0.1702783727714412 14.4615354817033 -0.2298127848448157 L 14.4615354817033 -0.41595303754291546 L 13.960484247970617 -0.41595303754291546 L 13.960484247970617 3.5517248709269413 L 16.20435027069572 3.5517248709269413 Z" fill="#1c3423" transform="matrix(1,0,0,1,0,0)" fill-rule="nonzero"></path></g></g><g><path d=" M 7.603446166992186 0.6540000000000001 L 7.603446166992186 0.8475000000000001 Q 7.6349461669921865 0.8040000000000002 7.686696166992187 0.7800000000000001 Q 7.738446166992187 0.7560000000000001 7.805946166992187 0.7560000000000001 Q 7.900446166992187 0.7560000000000001 7.967946166992187 0.8017500000000002 Q 8.035446166992188 0.8475000000000001 8.070696166992187 0.9262500000000001 Q 8.105946166992187 1.0050000000000001 8.105946166992187 1.1010000000000002 Q 8.105946166992187 1.2060000000000002 8.066196166992187 1.2832500000000002 Q 8.026446166992187 1.3605 7.956696166992186 1.4010000000000002 Q 7.886946166992186 1.4415000000000002 7.7969461669921865 1.4415000000000002 Q 7.742946166992186 1.4415000000000002 7.693446166992187 1.4295000000000002 L 7.693446166992187 1.2180000000000002 Q 7.7054461669921865 1.2225000000000001 7.723446166992186 1.2225000000000001 Q 7.771446166992186 1.2225000000000001 7.801446166992187 1.191 Q 7.831446166992187 1.1595000000000002 7.831446166992187 1.1070000000000002 Q 7.831446166992187 1.0545000000000002 7.800696166992187 1.02 Q 7.769946166992186 0.9855000000000002 7.717446166992186 0.9855000000000002 Q 7.661946166992187 0.9855000000000002 7.6326961669921864 1.0230000000000001 Q 7.603446166992186 1.0605000000000002 7.603446166992186 1.122 L 7.603446166992186 1.5390000000000001 L 7.342446166992186 1.5390000000000001 L 7.342446166992186 1.362 Q 7.270446166992187 1.4580000000000002 7.121946166992187 1.4580000000000002 Q 7.027446166992187 1.4580000000000002 6.957696166992187 1.4130000000000003 Q 6.887946166992187 1.368 6.851196166992186 1.2885000000000002 Q 6.8144461669921865 1.209 6.8144461669921865 1.1070000000000002 Q 6.8144461669921865 0.9480000000000002 6.899196166992186 0.8520000000000001 Q 6.983946166992187 0.7560000000000001 7.132446166992186 0.7560000000000001 Q 7.202946166992186 0.7560000000000001 7.256196166992186 0.7792500000000001 Q 7.309446166992187 0.8025000000000001 7.342446166992186 0.8460000000000001 L 7.342446166992186 0.6540000000000001 L 6.722946166992187 0.6540000000000001 L 6.722946166992187 0.42900000000000005 L 8.197446166992187 0.42900000000000005 L 8.197446166992187 0.6540000000000001 L 7.603446166992186 0.6540000000000001 M 7.307946166992187 1.1947500000000002 Q 7.342446166992186 1.1580000000000001 7.342446166992186 1.1070000000000002 Q 7.342446166992186 1.056 7.308696166992187 1.02075 Q 7.274946166992186 0.9855000000000002 7.216446166992187 0.9855000000000002 Q 7.160946166992186 0.9855000000000002 7.125696166992187 1.01925 Q 7.090446166992186 1.0530000000000002 7.090446166992186 1.1085000000000003 Q 7.090446166992186 1.1640000000000001 7.124946166992187 1.19775 Q 7.159446166992186 1.2315 7.216446166992187 1.2315 Q 7.273446166992186 1.2315 7.307946166992187 1.1947500000000002 M 8.284471801757812 1.5390000000000001 L 8.284471801757812 0.6540000000000001 L 8.15247180175781 0.6540000000000001 L 8.15247180175781 0.42900000000000005 L 8.684971801757811 0.42900000000000005 L 8.684971801757811 0.6540000000000001 L 8.554471801757812 0.6540000000000001 L 8.554471801757812 1.5390000000000001 L 8.284471801757812 1.5390000000000001 M 9.826511352539061 0.6540000000000001 L 9.694511352539061 0.6540000000000001 L 9.694511352539061 1.5390000000000001 L 9.424511352539062 1.5390000000000001 L 9.424511352539062 1.332 Q 9.325511352539062 1.431 9.145511352539062 1.431 Q 8.952011352539062 1.431 8.844011352539061 1.3170000000000002 Q 8.73601135253906 1.203 8.73601135253906 1.008 Q 8.73601135253906 0.9660000000000001 8.74351135253906 0.9105000000000001 L 8.757011352539061 0.9105000000000001 Q 8.87701135253906 0.9105000000000001 8.92051135253906 0.8595000000000002 Q 8.964011352539062 0.8085000000000001 8.964011352539062 0.7110000000000001 L 8.964011352539062 0.6540000000000001 L 8.64001135253906 0.6540000000000001 L 8.64001135253906 0.42900000000000005 L 9.826511352539061 0.42900000000000005 L 9.826511352539061 0.6540000000000001 M 9.424511352539062 0.6540000000000001 L 9.231011352539062 0.6540000000000001 L 9.231011352539062 0.7605000000000002 Q 9.231011352539062 0.8760000000000001 9.177761352539061 0.9525000000000001 Q 9.124511352539061 1.0290000000000001 9.006011352539062 1.0470000000000002 Q 9.010511352539062 1.116 9.06301135253906 1.161 Q 9.11551135253906 1.2060000000000002 9.20551135253906 1.2060000000000002 Q 9.309011352539061 1.2060000000000002 9.366761352539061 1.1422500000000002 Q 9.424511352539062 1.0785 9.424511352539062 0.9780000000000001 L 9.424511352539062 0.6540000000000001 M 9.442512084960937 0.4710000000000001 L 9.442512084960937 0.33750000000000013 Q 9.442512084960937 0.19650000000000012 9.513762084960936 0.09825000000000017 Q 9.585012084960937 2.220446049250313e-16 9.756012084960936 2.220446049250313e-16 Q 9.909012084960937 2.220446049250313e-16 9.988512084960936 0.08700000000000019 Q 10.068012084960936 0.17400000000000015 10.060512084960937 0.3255000000000001 L 9.823512084960937 0.3255000000000001 Q 9.826512084960935 0.2775000000000001 9.809262084960936 0.2512500000000002 Q 9.792012084960936 0.2250000000000001 9.760512084960936 0.2250000000000001 Q 9.723012084960937 0.2250000000000001 9.707262084960936 0.2512500000000002 Q 9.691512084960936 0.2775000000000001 9.691512084960936 0.3330000000000002 L 9.691512084960936 0.4710000000000001 L 9.442512084960937 0.4710000000000001 M 11.067012084960936 0.6540000000000001 L 10.935012084960936 0.6540000000000001 L 10.935012084960936 1.5390000000000001 L 10.665012084960937 1.5390000000000001 L 10.665012084960937 1.1115000000000002 L 10.152012084960935 1.1115000000000002 L 10.152012084960935 1.2375000000000003 Q 10.152012084960935 1.2750000000000001 10.170012084960936 1.2990000000000002 Q 10.188012084960937 1.3230000000000002 10.224012084960936 1.3230000000000002 Q 10.258512084960936 1.3230000000000002 10.276512084960936 1.3005000000000002 Q 10.294512084960935 1.278 10.294512084960935 1.2420000000000002 L 10.294512084960935 1.2240000000000002 L 10.554012084960936 1.2240000000000002 Q 10.555512084960936 1.239 10.555512084960936 1.2585000000000002 Q 10.555512084960936 1.3935000000000002 10.469262084960937 1.473 Q 10.383012084960937 1.5525000000000002 10.230012084960936 1.5525000000000002 Q 10.119012084960936 1.5525000000000002 10.041012084960936 1.5090000000000001 Q 9.963012084960937 1.4655000000000002 9.923262084960935 1.39125 Q 9.883512084960936 1.3170000000000002 9.883512084960936 1.2240000000000002 L 9.883512084960936 0.9195000000000001 L 9.987012084960936 0.9195000000000001 Q 10.098012084960937 0.9195000000000001 10.142262084960937 0.8730000000000001 Q 10.186512084960937 0.8265000000000001 10.186512084960937 0.7425000000000002 L 10.186512084960937 0.6540000000000001 L 9.778512084960935 0.6540000000000001 L 9.778512084960935 0.42900000000000005 L 11.067012084960936 0.42900000000000005 L 11.067012084960936 0.6540000000000001 M 10.665012084960937 0.6540000000000001 L 10.458012084960936 0.6540000000000001 L 10.458012084960936 0.7425000000000002 Q 10.458012084960936 0.8265000000000001 10.432512084960937 0.8910000000000001 L 10.665012084960937 0.8910000000000001 L 10.665012084960937 0.6540000000000001 M 10.677002563476561 0.4365000000000001 Q 10.621502563476561 0.3510000000000002 10.587002563476561 0.3127500000000001 Q 10.55250256347656 0.2745000000000002 10.51500256347656 0.2610000000000001 Q 10.47750256347656 0.24750000000000005 10.41000256347656 0.24750000000000005 L 10.32750256347656 0.24750000000000005 L 10.32750256347656 0.030000000000000027 L 10.407002563476562 0.030000000000000027 Q 10.537502563476561 0.031500000000000083 10.61325256347656 0.05850000000000022 Q 10.689002563476562 0.08550000000000013 10.760252563476561 0.1695000000000002 Q 10.831502563476562 0.25350000000000006 10.93050256347656 0.4365000000000001 L 10.677002563476561 0.4365000000000001 M 12.130502563476561 0.6540000000000001 L 11.998502563476562 0.6540000000000001 L 11.998502563476562 1.5390000000000001 L 11.72700256347656 1.5390000000000001 L 11.72700256347656 1.0350000000000001 L 11.55000256347656 1.0350000000000001 Q 11.476502563476561 1.0350000000000001 11.430752563476561 1.074 Q 11.385002563476561 1.1130000000000002 11.385002563476561 1.1790000000000003 Q 11.385002563476561 1.2465000000000002 11.424752563476561 1.2862500000000001 Q 11.464502563476561 1.326 11.54400256347656 1.326 L 11.569502563476561 1.326 L 11.569502563476561 1.5375 L 11.50050256347656 1.5375 Q 11.331002563476561 1.5375 11.22075256347656 1.4475000000000002 Q 11.110502563476562 1.3575000000000002 11.110502563476562 1.173 Q 11.110502563476562 1.0485000000000002 11.16750256347656 0.9660000000000001 Q 11.22450256347656 0.8835000000000002 11.32125256347656 0.8437500000000001 Q 11.418002563476561 0.8040000000000002 11.53800256347656 0.8040000000000002 L 11.72700256347656 0.8040000000000002 L 11.72700256347656 0.6540000000000001 L 11.01900256347656 0.6540000000000001 L 11.01900256347656 0.42900000000000005 L 12.130502563476561 0.42900000000000005 L 12.130502563476561 0.6540000000000001 M 12.030771606445311 1.9867500000000002 Q 11.938521606445311 2.067 11.78252160644531 2.067 Q 11.67602160644531 2.067 11.58452160644531 2.031 Q 11.49302160644531 1.995 11.43677160644531 1.9147500000000002 Q 11.38052160644531 1.8345000000000002 11.38202160644531 1.7085000000000001 L 11.62052160644531 1.7085000000000001 Q 11.61902160644531 1.7850000000000001 11.66102160644531 1.8210000000000002 Q 11.703021606445311 1.8570000000000002 11.77652160644531 1.8570000000000002 Q 11.833521606445311 1.8570000000000002 11.86427160644531 1.8337500000000002 Q 11.895021606445312 1.8105000000000002 11.895021606445312 1.7670000000000001 Q 11.895021606445312 1.7265000000000001 11.86652160644531 1.70175 Q 11.838021606445311 1.677 11.784021606445311 1.677 L 11.72552160644531 1.677 L 11.72552160644531 1.467 L 11.784021606445311 1.467 Q 11.95052160644531 1.467 12.03677160644531 1.5465000000000002 Q 12.123021606445311 1.6260000000000001 12.123021606445311 1.7685000000000002 Q 12.123021606445311 1.9065 12.030771606445311 1.9867500000000002" fill="#1c3423" fill-rule="nonzero"></path></g><g><path d=" M 0.396 2.6090999999999998 Q 0.38175000000000003 2.5828499999999996 0.355125 2.5689749999999996 Q 0.3285 2.5550999999999995 0.2925 2.5550999999999995 Q 0.23025 2.5550999999999995 0.19275 2.5959749999999997 Q 0.15525 2.6368499999999995 0.15525 2.7051 Q 0.15525 2.7778499999999995 0.194625 2.8187249999999997 Q 0.234 2.8595999999999995 0.303 2.8595999999999995 Q 0.35025 2.8595999999999995 0.382875 2.8355999999999995 Q 0.41550000000000004 2.8115999999999994 0.4305 2.7665999999999995 L 0.26775 2.7665999999999995 L 0.26775 2.6720999999999995 L 0.54675 2.6720999999999995 L 0.54675 2.7913499999999996 Q 0.5325 2.8393499999999996 0.498375 2.8806 Q 0.46425 2.9218499999999996 0.41175 2.9473499999999997 Q 0.35925 2.9728499999999998 0.29325 2.9728499999999998 Q 0.21525 2.9728499999999998 0.154125 2.938725 Q 0.093 2.9045999999999994 0.058875000000000004 2.8438499999999998 Q 0.02475 2.7830999999999997 0.02475 2.7051 Q 0.02475 2.6270999999999995 0.058875000000000004 2.5659749999999995 Q 0.093 2.50485 0.15375 2.470725 Q 0.2145 2.4365999999999994 0.2925 2.4365999999999994 Q 0.387 2.4365999999999994 0.451875 2.4823499999999994 Q 0.51675 2.5281 0.5377500000000001 2.6090999999999998 L 0.396 2.6090999999999998 M 0.7462679443359375 2.5453499999999996 L 0.7462679443359375 2.6518499999999996 L 0.9180179443359375 2.6518499999999996 L 0.9180179443359375 2.75085 L 0.7462679443359375 2.75085 L 0.7462679443359375 2.8663499999999997 L 0.9405179443359375 2.8663499999999997 L 0.9405179443359375 2.9690999999999996 L 0.6180179443359375 2.9690999999999996 L 0.6180179443359375 2.4425999999999997 L 0.9405179443359375 2.4425999999999997 L 0.9405179443359375 2.5453499999999996 L 0.7462679443359375 2.5453499999999996 M 1.4025296630859376 2.4425999999999997 L 1.4025296630859376 2.5453499999999996 L 1.2630296630859374 2.5453499999999996 L 1.2630296630859374 2.9690999999999996 L 1.1347796630859375 2.9690999999999996 L 1.1347796630859375 2.5453499999999996 L 0.9952796630859375 2.5453499999999996 L 0.9952796630859375 2.4425999999999997 L 1.4025296630859376 2.4425999999999997 M 2.0047635498046876 2.4425999999999997 L 2.0047635498046876 2.5453499999999996 L 1.8652635498046874 2.5453499999999996 L 1.8652635498046874 2.9690999999999996 L 1.7370135498046875 2.9690999999999996 L 1.7370135498046875 2.5453499999999996 L 1.5975135498046875 2.5453499999999996 L 1.5975135498046875 2.4425999999999997 L 2.0047635498046876 2.4425999999999997 M 2.52526611328125 2.4425999999999997 L 2.52526611328125 2.9690999999999996 L 2.39701611328125 2.9690999999999996 L 2.39701611328125 2.75235 L 2.19751611328125 2.75235 L 2.19751611328125 2.9690999999999996 L 2.06926611328125 2.9690999999999996 L 2.06926611328125 2.4425999999999997 L 2.19751611328125 2.4425999999999997 L 2.19751611328125 2.6488499999999995 L 2.39701611328125 2.6488499999999995 L 2.39701611328125 2.4425999999999997 L 2.52526611328125 2.4425999999999997 M 2.7457796630859375 2.4425999999999997 L 2.7457796630859375 2.9690999999999996 L 2.6175296630859375 2.9690999999999996 L 2.6175296630859375 2.4425999999999997 L 2.7457796630859375 2.4425999999999997 M 3.309766845703125 2.9690999999999996 L 3.181516845703125 2.9690999999999996 L 2.967016845703125 2.6443499999999998 L 2.967016845703125 2.9690999999999996 L 2.838766845703125 2.9690999999999996 L 2.838766845703125 2.4425999999999997 L 2.967016845703125 2.4425999999999997 L 3.181516845703125 2.7688499999999996 L 3.181516845703125 2.4425999999999997 L 3.309766845703125 2.4425999999999997 L 3.309766845703125 2.9690999999999996 M 3.7522774658203124 2.6090999999999998 Q 3.7380274658203128 2.5828499999999996 3.7114024658203126 2.5689749999999996 Q 3.6847774658203125 2.5550999999999995 3.6487774658203125 2.5550999999999995 Q 3.5865274658203123 2.5550999999999995 3.5490274658203127 2.5959749999999997 Q 3.5115274658203126 2.6368499999999995 3.5115274658203126 2.7051 Q 3.5115274658203126 2.7778499999999995 3.5509024658203123 2.8187249999999997 Q 3.5902774658203125 2.8595999999999995 3.6592774658203124 2.8595999999999995 Q 3.7065274658203125 2.8595999999999995 3.7391524658203124 2.8355999999999995 Q 3.7717774658203127 2.8115999999999994 3.7867774658203124 2.7665999999999995 L 3.6240274658203124 2.7665999999999995 L 3.6240274658203124 2.6720999999999995 L 3.9030274658203123 2.6720999999999995 L 3.9030274658203123 2.7913499999999996 Q 3.8887774658203123 2.8393499999999996 3.8546524658203127 2.8806 Q 3.8205274658203123 2.9218499999999996 3.7680274658203126 2.9473499999999997 Q 3.7155274658203123 2.9728499999999998 3.6495274658203125 2.9728499999999998 Q 3.5715274658203127 2.9728499999999998 3.5104024658203126 2.938725 Q 3.4492774658203125 2.9045999999999994 3.4151524658203125 2.8438499999999998 Q 3.3810274658203125 2.7830999999999997 3.3810274658203125 2.7051 Q 3.3810274658203125 2.6270999999999995 3.4151524658203125 2.5659749999999995 Q 3.4492774658203125 2.50485 3.5100274658203126 2.470725 Q 3.5707774658203126 2.4365999999999994 3.6487774658203125 2.4365999999999994 Q 3.7432774658203125 2.4365999999999994 3.8081524658203127 2.4823499999999994 Q 3.8730274658203125 2.5281 3.8940274658203125 2.6090999999999998 L 3.7522774658203124 2.6090999999999998 M 4.06129541015625 2.9555999999999996 Q 4.01554541015625 2.9368499999999997 3.98817041015625 2.9000999999999997 Q 3.96079541015625 2.8633499999999996 3.95929541015625 2.8115999999999994 L 4.09579541015625 2.8115999999999994 Q 4.09879541015625 2.8408499999999997 4.11604541015625 2.856225 Q 4.13329541015625 2.8715999999999995 4.16104541015625 2.8715999999999995 Q 4.18954541015625 2.8715999999999995 4.20604541015625 2.8584749999999994 Q 4.22254541015625 2.84535 4.22254541015625 2.8221 Q 4.22254541015625 2.8025999999999995 4.20942041015625 2.7898499999999995 Q 4.19629541015625 2.7770999999999995 4.17717041015625 2.7688499999999996 Q 4.15804541015625 2.7605999999999997 4.12279541015625 2.7500999999999998 Q 4.07179541015625 2.7343499999999996 4.03954541015625 2.7185999999999995 Q 4.00729541015625 2.7028499999999998 3.98404541015625 2.6720999999999995 Q 3.96079541015625 2.6413499999999996 3.96079541015625 2.5918499999999995 Q 3.96079541015625 2.51835 4.01404541015625 2.4767249999999996 Q 4.06729541015625 2.4350999999999994 4.15279541015625 2.4350999999999994 Q 4.23979541015625 2.4350999999999994 4.29304541015625 2.4767249999999996 Q 4.34629541015625 2.51835 4.35004541015625 2.5925999999999996 L 4.21129541015625 2.5925999999999996 Q 4.20979541015625 2.5670999999999995 4.19254541015625 2.5524749999999994 Q 4.17529541015625 2.5378499999999997 4.14829541015625 2.5378499999999997 Q 4.12504541015625 2.5378499999999997 4.11079541015625 2.5502249999999997 Q 4.09654541015625 2.5625999999999998 4.09654541015625 2.5858499999999998 Q 4.09654541015625 2.61135 4.12054541015625 2.6255999999999995 Q 4.14454541015625 2.6398499999999996 4.19554541015625 2.6563499999999998 Q 4.24654541015625 2.6735999999999995 4.27842041015625 2.6893499999999997 Q 4.31029541015625 2.7051 4.33354541015625 2.7350999999999996 Q 4.35679541015625 2.7650999999999994 4.35679541015625 2.8123499999999995 Q 4.35679541015625 2.85735 4.33392041015625 2.8940999999999995 Q 4.31104541015625 2.9308499999999995 4.26754541015625 2.9525999999999994 Q 4.22404541015625 2.97435 4.16479541015625 2.97435 Q 4.10704541015625 2.97435 4.06129541015625 2.9555999999999996 M 4.937269409179687 2.4755999999999996 Q 4.999519409179688 2.5085999999999995 5.033644409179687 2.5682249999999995 Q 5.067769409179688 2.6278499999999996 5.067769409179688 2.70585 Q 5.067769409179688 2.7830999999999997 5.033644409179687 2.8430999999999997 Q 4.999519409179688 2.9031 4.936894409179687 2.9360999999999997 Q 4.874269409179687 2.9690999999999996 4.791769409179688 2.9690999999999996 L 4.5945194091796875 2.9690999999999996 L 4.5945194091796875 2.4425999999999997 L 4.791769409179688 2.4425999999999997 Q 4.8750194091796875 2.4425999999999997 4.937269409179687 2.4755999999999996 M 4.896769409179687 2.8183499999999997 Q 4.937269409179687 2.7785999999999995 4.937269409179687 2.70585 Q 4.937269409179687 2.6330999999999998 4.896769409179687 2.5925999999999996 Q 4.856269409179688 2.5521 4.7835194091796875 2.5521 L 4.722769409179688 2.5521 L 4.722769409179688 2.8580999999999994 L 4.7835194091796875 2.8580999999999994 Q 4.856269409179688 2.8580999999999994 4.896769409179687 2.8183499999999997 M 5.25263671875 2.9398499999999994 Q 5.19076171875 2.9053499999999994 5.15438671875 2.8434749999999998 Q 5.11801171875 2.7815999999999996 5.11801171875 2.70435 Q 5.11801171875 2.6270999999999995 5.15438671875 2.5655999999999994 Q 5.19076171875 2.5040999999999998 5.25263671875 2.4696 Q 5.31451171875 2.4350999999999994 5.38876171875 2.4350999999999994 Q 5.46301171875 2.4350999999999994 5.52488671875 2.4696 Q 5.58676171875 2.5040999999999998 5.62238671875 2.5655999999999994 Q 5.65801171875 2.6270999999999995 5.65801171875 2.70435 Q 5.65801171875 2.7815999999999996 5.6220117187500005 2.8434749999999998 Q 5.58601171875 2.9053499999999994 5.52451171875 2.9398499999999994 Q 5.46301171875 2.97435 5.38876171875 2.97435 Q 5.31451171875 2.97435 5.25263671875 2.9398499999999994 M 5.48963671875 2.8153499999999996 Q 5.5275117187500005 2.7733499999999998 5.5275117187500005 2.70435 Q 5.5275117187500005 2.6346 5.48963671875 2.5929749999999996 Q 5.45176171875 2.55135 5.38876171875 2.55135 Q 5.32501171875 2.55135 5.28713671875 2.5925999999999996 Q 5.24926171875 2.63385 5.24926171875 2.70435 Q 5.24926171875 2.7741 5.28713671875 2.8157249999999996 Q 5.32501171875 2.85735 5.38876171875 2.85735 Q 5.45176171875 2.85735 5.48963671875 2.8153499999999996 M 6.200269775390625 2.9690999999999996 L 6.072019775390625 2.9690999999999996 L 5.857519775390625 2.6443499999999998 L 5.857519775390625 2.9690999999999996 L 5.729269775390625 2.9690999999999996 L 5.729269775390625 2.4425999999999997 L 5.857519775390625 2.4425999999999997 L 6.072019775390625 2.7688499999999996 L 6.072019775390625 2.4425999999999997 L 6.200269775390625 2.4425999999999997 L 6.200269775390625 2.9690999999999996 M 6.421530395507813 2.5453499999999996 L 6.421530395507813 2.6518499999999996 L 6.593280395507812 2.6518499999999996 L 6.593280395507812 2.75085 L 6.421530395507813 2.75085 L 6.421530395507813 2.8663499999999997 L 6.615780395507812 2.8663499999999997 L 6.615780395507812 2.9690999999999996 L 6.2932803955078125 2.9690999999999996 L 6.2932803955078125 2.4425999999999997 L 6.615780395507812 2.4425999999999997 L 6.615780395507812 2.5453499999999996 L 6.421530395507813 2.5453499999999996 M 6.9862734375 2.5453499999999996 L 6.9862734375 2.6518499999999996 L 7.1580234375 2.6518499999999996 L 7.1580234375 2.75085 L 6.9862734375 2.75085 L 6.9862734375 2.8663499999999997 L 7.1805234375 2.8663499999999997 L 7.1805234375 2.9690999999999996 L 6.8580234375 2.9690999999999996 L 6.8580234375 2.4425999999999997 L 7.1805234375 2.4425999999999997 L 7.1805234375 2.5453499999999996 L 6.9862734375 2.5453499999999996 M 7.60653515625 2.4425999999999997 L 7.60653515625 2.5453499999999996 L 7.39203515625 2.5453499999999996 L 7.39203515625 2.6563499999999998 L 7.55253515625 2.6563499999999998 L 7.55253515625 2.7560999999999996 L 7.39203515625 2.7560999999999996 L 7.39203515625 2.9690999999999996 L 7.26378515625 2.9690999999999996 L 7.26378515625 2.4425999999999997 L 7.60653515625 2.4425999999999997 M 8.016782958984376 2.4425999999999997 L 8.016782958984376 2.5453499999999996 L 7.802282958984375 2.5453499999999996 L 7.802282958984375 2.6563499999999998 L 7.962782958984375 2.6563499999999998 L 7.962782958984375 2.7560999999999996 L 7.802282958984375 2.7560999999999996 L 7.802282958984375 2.9690999999999996 L 7.674032958984375 2.9690999999999996 L 7.674032958984375 2.4425999999999997 L 8.016782958984376 2.4425999999999997 M 8.19715576171875 2.9398499999999994 Q 8.13528076171875 2.9053499999999994 8.09890576171875 2.8434749999999998 Q 8.06253076171875 2.7815999999999996 8.06253076171875 2.70435 Q 8.06253076171875 2.6270999999999995 8.09890576171875 2.5655999999999994 Q 8.13528076171875 2.5040999999999998 8.19715576171875 2.4696 Q 8.25903076171875 2.4350999999999994 8.33328076171875 2.4350999999999994 Q 8.40753076171875 2.4350999999999994 8.46940576171875 2.4696 Q 8.53128076171875 2.5040999999999998 8.56690576171875 2.5655999999999994 Q 8.60253076171875 2.6270999999999995 8.60253076171875 2.70435 Q 8.60253076171875 2.7815999999999996 8.56653076171875 2.8434749999999998 Q 8.530530761718751 2.9053499999999994 8.46903076171875 2.9398499999999994 Q 8.40753076171875 2.97435 8.33328076171875 2.97435 Q 8.25903076171875 2.97435 8.19715576171875 2.9398499999999994 M 8.43415576171875 2.8153499999999996 Q 8.47203076171875 2.7733499999999998 8.47203076171875 2.70435 Q 8.47203076171875 2.6346 8.43415576171875 2.5929749999999996 Q 8.39628076171875 2.55135 8.33328076171875 2.55135 Q 8.26953076171875 2.55135 8.23165576171875 2.5925999999999996 Q 8.19378076171875 2.63385 8.19378076171875 2.70435 Q 8.19378076171875 2.7741 8.23165576171875 2.8157249999999996 Q 8.26953076171875 2.85735 8.33328076171875 2.85735 Q 8.39628076171875 2.85735 8.43415576171875 2.8153499999999996 M 8.942288818359375 2.9690999999999996 L 8.832788818359376 2.7703499999999996 L 8.802038818359375 2.7703499999999996 L 8.802038818359375 2.9690999999999996 L 8.673788818359375 2.9690999999999996 L 8.673788818359375 2.4425999999999997 L 8.889038818359374 2.4425999999999997 Q 8.951288818359375 2.4425999999999997 8.995163818359375 2.4643499999999996 Q 9.039038818359375 2.4860999999999995 9.060788818359375 2.5239749999999996 Q 9.082538818359374 2.5618499999999997 9.082538818359374 2.6083499999999997 Q 9.082538818359374 2.6608499999999995 9.052913818359375 2.7020999999999997 Q 9.023288818359376 2.7433499999999995 8.965538818359375 2.7605999999999997 L 9.087038818359375 2.9690999999999996 L 8.942288818359375 2.9690999999999996 M 8.802038818359375 2.6795999999999998 L 8.881538818359376 2.6795999999999998 Q 8.916788818359375 2.6795999999999998 8.934413818359374 2.6623499999999996 Q 8.952038818359375 2.6451 8.952038818359375 2.6135999999999995 Q 8.952038818359375 2.5835999999999997 8.934413818359374 2.5663499999999995 Q 8.916788818359375 2.5490999999999997 8.881538818359376 2.5490999999999997 L 8.802038818359375 2.5490999999999997 L 8.802038818359375 2.6795999999999998 M 9.54152197265625 2.4425999999999997 L 9.54152197265625 2.5453499999999996 L 9.40202197265625 2.5453499999999996 L 9.40202197265625 2.9690999999999996 L 9.27377197265625 2.9690999999999996 L 9.27377197265625 2.5453499999999996 L 9.13427197265625 2.5453499999999996 L 9.13427197265625 2.4425999999999997 L 9.54152197265625 2.4425999999999997 M 9.734274536132812 2.8700999999999994 L 9.902274536132813 2.8700999999999994 L 9.902274536132813 2.9690999999999996 L 9.606024536132812 2.9690999999999996 L 9.606024536132812 2.4425999999999997 L 9.734274536132812 2.4425999999999997 L 9.734274536132812 2.8700999999999994 M 10.092016845703125 2.5453499999999996 L 10.092016845703125 2.6518499999999996 L 10.263766845703126 2.6518499999999996 L 10.263766845703126 2.75085 L 10.092016845703125 2.75085 L 10.092016845703125 2.8663499999999997 L 10.286266845703125 2.8663499999999997 L 10.286266845703125 2.9690999999999996 L 9.963766845703125 2.9690999999999996 L 9.963766845703125 2.4425999999999997 L 10.286266845703125 2.4425999999999997 L 10.286266845703125 2.5453499999999996 L 10.092016845703125 2.5453499999999996 M 10.456528564453125 2.9555999999999996 Q 10.410778564453125 2.9368499999999997 10.383403564453126 2.9000999999999997 Q 10.356028564453124 2.8633499999999996 10.354528564453124 2.8115999999999994 L 10.491028564453124 2.8115999999999994 Q 10.494028564453124 2.8408499999999997 10.511278564453125 2.856225 Q 10.528528564453126 2.8715999999999995 10.556278564453125 2.8715999999999995 Q 10.584778564453124 2.8715999999999995 10.601278564453125 2.8584749999999994 Q 10.617778564453126 2.84535 10.617778564453126 2.8221 Q 10.617778564453126 2.8025999999999995 10.604653564453125 2.7898499999999995 Q 10.591528564453125 2.7770999999999995 10.572403564453126 2.7688499999999996 Q 10.553278564453125 2.7605999999999997 10.518028564453125 2.7500999999999998 Q 10.467028564453125 2.7343499999999996 10.434778564453126 2.7185999999999995 Q 10.402528564453124 2.7028499999999998 10.379278564453125 2.6720999999999995 Q 10.356028564453124 2.6413499999999996 10.356028564453124 2.5918499999999995 Q 10.356028564453124 2.51835 10.409278564453125 2.4767249999999996 Q 10.462528564453125 2.4350999999999994 10.548028564453125 2.4350999999999994 Q 10.635028564453124 2.4350999999999994 10.688278564453125 2.4767249999999996 Q 10.741528564453125 2.51835 10.745278564453125 2.5925999999999996 L 10.606528564453125 2.5925999999999996 Q 10.605028564453125 2.5670999999999995 10.587778564453124 2.5524749999999994 Q 10.570528564453125 2.5378499999999997 10.543528564453124 2.5378499999999997 Q 10.520278564453125 2.5378499999999997 10.506028564453125 2.5502249999999997 Q 10.491778564453124 2.5625999999999998 10.491778564453124 2.5858499999999998 Q 10.491778564453124 2.61135 10.515778564453125 2.6255999999999995 Q 10.539778564453124 2.6398499999999996 10.590778564453124 2.6563499999999998 Q 10.641778564453125 2.6735999999999995 10.673653564453126 2.6893499999999997 Q 10.705528564453125 2.7051 10.728778564453124 2.7350999999999996 Q 10.752028564453125 2.7650999999999994 10.752028564453125 2.8123499999999995 Q 10.752028564453125 2.85735 10.729153564453124 2.8940999999999995 Q 10.706278564453125 2.9308499999999995 10.662778564453125 2.9525999999999994 Q 10.619278564453126 2.97435 10.560028564453125 2.97435 Q 10.502278564453125 2.97435 10.456528564453125 2.9555999999999996 M 10.917771240234375 2.9555999999999996 Q 10.872021240234375 2.9368499999999997 10.844646240234376 2.9000999999999997 Q 10.817271240234374 2.8633499999999996 10.815771240234374 2.8115999999999994 L 10.952271240234374 2.8115999999999994 Q 10.955271240234374 2.8408499999999997 10.972521240234375 2.856225 Q 10.989771240234376 2.8715999999999995 11.017521240234375 2.8715999999999995 Q 11.046021240234374 2.8715999999999995 11.062521240234375 2.8584749999999994 Q 11.079021240234376 2.84535 11.079021240234376 2.8221 Q 11.079021240234376 2.8025999999999995 11.065896240234375 2.7898499999999995 Q 11.052771240234375 2.7770999999999995 11.033646240234376 2.7688499999999996 Q 11.014521240234375 2.7605999999999997 10.979271240234375 2.7500999999999998 Q 10.928271240234375 2.7343499999999996 10.896021240234376 2.7185999999999995 Q 10.863771240234374 2.7028499999999998 10.840521240234375 2.6720999999999995 Q 10.817271240234374 2.6413499999999996 10.817271240234374 2.5918499999999995 Q 10.817271240234374 2.51835 10.870521240234375 2.4767249999999996 Q 10.923771240234375 2.4350999999999994 11.009271240234375 2.4350999999999994 Q 11.096271240234374 2.4350999999999994 11.149521240234375 2.4767249999999996 Q 11.202771240234375 2.51835 11.206521240234375 2.5925999999999996 L 11.067771240234375 2.5925999999999996 Q 11.066271240234375 2.5670999999999995 11.049021240234374 2.5524749999999994 Q 11.031771240234375 2.5378499999999997 11.004771240234374 2.5378499999999997 Q 10.981521240234375 2.5378499999999997 10.967271240234375 2.5502249999999997 Q 10.953021240234374 2.5625999999999998 10.953021240234374 2.5858499999999998 Q 10.953021240234374 2.61135 10.977021240234375 2.6255999999999995 Q 11.001021240234374 2.6398499999999996 11.052021240234374 2.6563499999999998 Q 11.103021240234375 2.6735999999999995 11.134896240234376 2.6893499999999997 Q 11.166771240234375 2.7051 11.190021240234374 2.7350999999999996 Q 11.213271240234375 2.7650999999999994 11.213271240234375 2.8123499999999995 Q 11.213271240234375 2.85735 11.190396240234374 2.8940999999999995 Q 11.167521240234375 2.9308499999999995 11.124021240234375 2.9525999999999994 Q 11.080521240234376 2.97435 11.021271240234375 2.97435 Q 10.963521240234375 2.97435 10.917771240234375 2.9555999999999996 M 11.420263916015625 2.8700999999999994 L 11.588263916015626 2.8700999999999994 L 11.588263916015626 2.9690999999999996 L 11.292013916015625 2.9690999999999996 L 11.292013916015625 2.4425999999999997 L 11.420263916015625 2.4425999999999997 L 11.420263916015625 2.8700999999999994 M 12.101256225585937 2.4425999999999997 L 11.919006225585937 2.7950999999999997 L 11.919006225585937 2.9690999999999996 L 11.790756225585938 2.9690999999999996 L 11.790756225585938 2.7950999999999997 L 11.608506225585938 2.4425999999999997 L 11.754006225585938 2.4425999999999997 L 11.856006225585938 2.6630999999999996 L 11.957256225585937 2.4425999999999997 L 12.101256225585937 2.4425999999999997" fill="#67a97b" fill-rule="nonzero"></path></g></g><defs><clipPath id="SvgjsClipPath2518"><path d=" M 12.506521606445313 -1.6294683511019967 h 6.241356808508554 v 6.228036702203993 h -6.241356808508554 Z"></path></clipPath><clipPath id="a44aaebfd-1943-42be-b29a-22bfb35238990e70fae2-a49a-4a34-8c6b-b30db8db04cb"><path d=" M 12.506521606445313 4.598568351101997 L 18.74785278893355 4.598568351101997 L 18.74785278893355 -1.62945278101024 L 12.506521606445313 -1.62945278101024 Z"></path></clipPath><clipPath id="SvgjsClipPath25130e70fae2-a49a-4a34-8c6b-b30db8db04cb"><path d=" M 12.506521606445313 -1.6294683511019963 L 18.747878414953867 -1.6294683511019963 L 18.747878414953867 4.598568351101997 L 12.506521606445313 4.598568351101997 Z"></path></clipPath><clipPath id="b44aaebfd-1943-42be-b29a-22bfb35238990e70fae2-a49a-4a34-8c6b-b30db8db04cb"><path d=" M 12.506521606445313 4.598568351101997 L 18.74785278893355 4.598568351101997 L 18.74785278893355 -1.62945278101024 L 12.506521606445313 -1.62945278101024 Z"></path></clipPath></defs></svg>